<svg width="29" height="37" viewBox="0 0 29 37" fill="none" xmlns="http://www.w3.org/2000/svg">
<path fill-rule="evenodd" clip-rule="evenodd" d="M2.09217 24.9546L2.08626 24.9626L2.08053 24.9708C1.76122 25.425 1.04595 25.5585 0.486597 25.1616C0.0388344 24.8438 -0.0957519 24.1358 0.285552 23.5762C0.854475 22.8476 1.26766 21.9957 1.53905 21.1629C1.82159 20.296 1.95301 19.3108 1.94791 18.3446C1.94282 17.3784 1.80101 16.3948 1.50935 15.5309C1.22919 14.7011 0.80704 13.8537 0.230463 13.1312C-0.156722 12.5758 -0.0296115 11.8663 0.414774 11.5438C0.969903 11.1409 1.68654 11.2667 2.01063 11.7175L2.01644 11.7256L2.02244 11.7335C2.74008 12.6843 3.32867 13.7408 3.68041 14.7773C4.05064 15.9965 4.28646 17.176 4.29256 18.332C4.29898 19.5486 4.18325 20.7001 3.73892 21.8336C3.255 23.0681 2.7864 24.0142 2.09217 24.9546ZM7.28099 27.2125L7.29501 27.1925L7.30789 27.1718C8.89856 24.6112 9.81609 21.5213 9.79911 18.3024C9.78214 15.0843 8.83254 12.0053 7.21569 9.46225C6.8653 8.90393 7.02272 8.2438 7.61335 7.81511C8.01002 7.5272 8.7547 7.62911 9.19652 8.22406C11.022 11.1342 12.1246 14.6522 12.1438 18.2898C12.1636 22.0516 11.099 25.4554 9.30268 28.387C8.88714 28.9616 8.251 29.1227 7.70245 28.797C7.10775 28.3592 6.99906 27.6135 7.28099 27.2125ZM16.5929 4.39863L16.6086 4.42972L16.6267 4.45943C19.1003 8.51158 20.4748 13.1856 20.5015 18.2449C20.5282 23.3018 19.2042 27.9884 16.7757 32.0656C16.4034 32.6671 15.7748 32.8367 15.1376 32.5387C14.5576 32.159 14.4018 31.5296 14.7048 30.8939C16.7702 27.2086 18.0545 22.8657 18.0302 18.2582C18.006 13.6712 16.8123 9.33533 14.5673 5.64978C14.2635 5.02048 14.4139 4.39372 14.987 4.00959C15.6784 3.67771 16.352 3.92093 16.5929 4.39863ZM23.9174 0.542038L23.9281 0.563279L23.94 0.583889C26.9374 5.79014 28.6985 11.7424 28.7325 18.2006C28.7666 24.6522 27.0719 30.6174 24.1351 35.8517C23.7622 36.4463 23.1365 36.6129 22.5023 36.3163C21.9242 35.9378 21.7676 35.3112 22.0667 34.6776C24.8959 29.826 26.4195 24.2053 26.3879 18.2132C26.3562 12.2058 24.6393 6.60686 21.8967 1.80332C21.5531 1.1021 21.7952 0.415309 22.2749 0.171086C22.9791 -0.187387 23.6723 0.055921 23.9174 0.542038Z" fill="white"/>
</svg>
